<mxfile host="Electron" modified="2024-08-01T02:51:48.178Z" agent="Mozilla/5.0 (Macintosh; Intel Mac OS X 10_15_7) AppleWebKit/537.36 (KHTML, like Gecko) draw.io/24.2.5 Chrome/120.0.6099.109 Electron/28.1.0 Safari/537.36" etag="3BMfvuOvKumbTA4UCGl_" version="24.2.5" type="device">
  <diagram name="Background" id="AfmMoNizB-YR5Tp6Yh8u">
    <mxGraphModel dx="1596" dy="1402" grid="0" gridSize="10" guides="1" tooltips="1" connect="1" arrows="1" fold="1" page="0" pageScale="1" pageWidth="850" pageHeight="1100" math="0" shadow="0">
      <root>
        <mxCell id="0" />
        <mxCell id="1" parent="0" />
        <mxCell id="hX907-kXAruIxhgI71Em-20" style="edgeStyle=orthogonalEdgeStyle;rounded=0;hachureGap=4;orthogonalLoop=1;jettySize=auto;html=1;exitX=0.421;exitY=-0.003;exitDx=0;exitDy=0;entryX=1;entryY=0.5;entryDx=0;entryDy=0;fontFamily=Architects Daughter;fontSource=https%3A%2F%2Ffonts.googleapis.com%2Fcss%3Ffamily%3DArchitects%2BDaughter;fontSize=20;fontColor=default;exitPerimeter=0;strokeWidth=2;flowAnimation=1;strokeColor=#FF00FF;" edge="1" parent="1" source="hX907-kXAruIxhgI71Em-1" target="hX907-kXAruIxhgI71Em-2">
          <mxGeometry relative="1" as="geometry" />
        </mxCell>
        <mxCell id="hX907-kXAruIxhgI71Em-1" value="Providing Security Insight of Cloud in 30 Days&amp;nbsp;" style="ellipse;whiteSpace=wrap;html=1;aspect=fixed;sketch=1;hachureGap=4;jiggle=2;curveFitting=1;fontFamily=Architects Daughter;fontSource=https%3A%2F%2Ffonts.googleapis.com%2Fcss%3Ffamily%3DArchitects%2BDaughter;fontSize=20;fillColor=#ffcd28;gradientColor=#ffa500;strokeColor=#d79b00;fontColor=#000000;fontStyle=1" vertex="1" parent="1">
          <mxGeometry x="330" y="320" width="190" height="190" as="geometry" />
        </mxCell>
        <mxCell id="hX907-kXAruIxhgI71Em-19" style="edgeStyle=orthogonalEdgeStyle;rounded=0;hachureGap=4;orthogonalLoop=1;jettySize=auto;html=1;exitX=0.5;exitY=1;exitDx=0;exitDy=0;entryX=0.5;entryY=0;entryDx=0;entryDy=0;fontFamily=Architects Daughter;fontSource=https%3A%2F%2Ffonts.googleapis.com%2Fcss%3Ffamily%3DArchitects%2BDaughter;fontSize=20;fontColor=default;strokeWidth=2;flowAnimation=1;strokeColor=#FF00FF;" edge="1" parent="1" source="hX907-kXAruIxhgI71Em-2" target="hX907-kXAruIxhgI71Em-15">
          <mxGeometry relative="1" as="geometry" />
        </mxCell>
        <mxCell id="hX907-kXAruIxhgI71Em-2" value="Cloud Visibility" style="rounded=1;whiteSpace=wrap;html=1;sketch=1;hachureGap=4;jiggle=2;curveFitting=1;fontFamily=Architects Daughter;fontSource=https%3A%2F%2Ffonts.googleapis.com%2Fcss%3Ffamily%3DArchitects%2BDaughter;fontSize=20;" vertex="1" parent="1">
          <mxGeometry x="120" y="160" width="200" height="70" as="geometry" />
        </mxCell>
        <mxCell id="hX907-kXAruIxhgI71Em-37" style="edgeStyle=orthogonalEdgeStyle;rounded=0;hachureGap=4;orthogonalLoop=1;jettySize=auto;html=1;entryX=0.5;entryY=0;entryDx=0;entryDy=0;fontFamily=Architects Daughter;fontSource=https%3A%2F%2Ffonts.googleapis.com%2Fcss%3Ffamily%3DArchitects%2BDaughter;fontSize=20;fontColor=default;dashed=1;dashPattern=1 4;flowAnimation=1;" edge="1" parent="1" source="hX907-kXAruIxhgI71Em-3" target="hX907-kXAruIxhgI71Em-22">
          <mxGeometry relative="1" as="geometry" />
        </mxCell>
        <mxCell id="hX907-kXAruIxhgI71Em-38" style="edgeStyle=orthogonalEdgeStyle;rounded=0;hachureGap=4;orthogonalLoop=1;jettySize=auto;html=1;fontFamily=Architects Daughter;fontSource=https%3A%2F%2Ffonts.googleapis.com%2Fcss%3Ffamily%3DArchitects%2BDaughter;fontSize=20;fontColor=default;strokeWidth=2;flowAnimation=1;strokeColor=#FF00FF;" edge="1" parent="1" source="hX907-kXAruIxhgI71Em-3" target="hX907-kXAruIxhgI71Em-4">
          <mxGeometry relative="1" as="geometry" />
        </mxCell>
        <mxCell id="hX907-kXAruIxhgI71Em-3" value="Continuous Compliance" style="rounded=1;whiteSpace=wrap;html=1;sketch=1;hachureGap=4;jiggle=2;curveFitting=1;fontFamily=Architects Daughter;fontSource=https%3A%2F%2Ffonts.googleapis.com%2Fcss%3Ffamily%3DArchitects%2BDaughter;fontSize=20;" vertex="1" parent="1">
          <mxGeometry x="120" y="500" width="200" height="70" as="geometry" />
        </mxCell>
        <mxCell id="hX907-kXAruIxhgI71Em-39" style="edgeStyle=orthogonalEdgeStyle;rounded=0;hachureGap=4;orthogonalLoop=1;jettySize=auto;html=1;exitX=0.5;exitY=1;exitDx=0;exitDy=0;entryX=0.5;entryY=0;entryDx=0;entryDy=0;fontFamily=Architects Daughter;fontSource=https%3A%2F%2Ffonts.googleapis.com%2Fcss%3Ffamily%3DArchitects%2BDaughter;fontSize=20;fontColor=default;dashed=1;dashPattern=1 4;flowAnimation=1;" edge="1" parent="1" source="hX907-kXAruIxhgI71Em-4" target="hX907-kXAruIxhgI71Em-29">
          <mxGeometry relative="1" as="geometry" />
        </mxCell>
        <mxCell id="hX907-kXAruIxhgI71Em-40" style="edgeStyle=orthogonalEdgeStyle;rounded=0;hachureGap=4;orthogonalLoop=1;jettySize=auto;html=1;entryX=1;entryY=0.5;entryDx=0;entryDy=0;fontFamily=Architects Daughter;fontSource=https%3A%2F%2Ffonts.googleapis.com%2Fcss%3Ffamily%3DArchitects%2BDaughter;fontSize=20;fontColor=default;exitX=1;exitY=0.5;exitDx=0;exitDy=0;strokeWidth=2;flowAnimation=1;strokeColor=#FF00FF;" edge="1" parent="1" source="hX907-kXAruIxhgI71Em-4" target="hX907-kXAruIxhgI71Em-5">
          <mxGeometry relative="1" as="geometry" />
        </mxCell>
        <mxCell id="hX907-kXAruIxhgI71Em-4" value="Cloud Threats" style="rounded=1;whiteSpace=wrap;html=1;sketch=1;hachureGap=4;jiggle=2;curveFitting=1;fontFamily=Architects Daughter;fontSource=https%3A%2F%2Ffonts.googleapis.com%2Fcss%3Ffamily%3DArchitects%2BDaughter;fontSize=20;" vertex="1" parent="1">
          <mxGeometry x="530" y="500" width="200" height="70" as="geometry" />
        </mxCell>
        <mxCell id="hX907-kXAruIxhgI71Em-5" value="Vulnerability Management" style="rounded=1;whiteSpace=wrap;html=1;sketch=1;hachureGap=4;jiggle=2;curveFitting=1;fontFamily=Architects Daughter;fontSource=https%3A%2F%2Ffonts.googleapis.com%2Fcss%3Ffamily%3DArchitects%2BDaughter;fontSize=20;" vertex="1" parent="1">
          <mxGeometry x="530" y="160" width="200" height="70" as="geometry" />
        </mxCell>
        <mxCell id="hX907-kXAruIxhgI71Em-11" value="1" style="ellipse;whiteSpace=wrap;html=1;aspect=fixed;rounded=1;sketch=1;hachureGap=4;jiggle=2;curveFitting=1;strokeColor=#82b366;align=center;verticalAlign=middle;fontFamily=Architects Daughter;fontSource=https%3A%2F%2Ffonts.googleapis.com%2Fcss%3Ffamily%3DArchitects%2BDaughter;fontSize=20;fillColor=#d5e8d4;gradientColor=#97d077;fontColor=#000000;" vertex="1" parent="1">
          <mxGeometry x="100" y="200" width="50" height="50" as="geometry" />
        </mxCell>
        <mxCell id="hX907-kXAruIxhgI71Em-12" value="2" style="ellipse;whiteSpace=wrap;html=1;aspect=fixed;rounded=1;sketch=1;hachureGap=4;jiggle=2;curveFitting=1;strokeColor=#82b366;align=center;verticalAlign=middle;fontFamily=Architects Daughter;fontSource=https%3A%2F%2Ffonts.googleapis.com%2Fcss%3Ffamily%3DArchitects%2BDaughter;fontSize=20;fillColor=#d5e8d4;gradientColor=#97d077;fontColor=#000000;" vertex="1" parent="1">
          <mxGeometry x="100" y="540" width="50" height="50" as="geometry" />
        </mxCell>
        <mxCell id="hX907-kXAruIxhgI71Em-13" value="3" style="ellipse;whiteSpace=wrap;html=1;aspect=fixed;rounded=1;sketch=1;hachureGap=4;jiggle=2;curveFitting=1;strokeColor=#82b366;align=center;verticalAlign=middle;fontFamily=Architects Daughter;fontSource=https%3A%2F%2Ffonts.googleapis.com%2Fcss%3Ffamily%3DArchitects%2BDaughter;fontSize=20;fillColor=#d5e8d4;gradientColor=#97d077;fontColor=#000000;" vertex="1" parent="1">
          <mxGeometry x="510" y="540" width="50" height="50" as="geometry" />
        </mxCell>
        <mxCell id="hX907-kXAruIxhgI71Em-14" value="4" style="ellipse;whiteSpace=wrap;html=1;aspect=fixed;rounded=1;sketch=1;hachureGap=4;jiggle=2;curveFitting=1;strokeColor=#82b366;align=center;verticalAlign=middle;fontFamily=Architects Daughter;fontSource=https%3A%2F%2Ffonts.googleapis.com%2Fcss%3Ffamily%3DArchitects%2BDaughter;fontSize=20;fillColor=#d5e8d4;gradientColor=#97d077;fontColor=#000000;" vertex="1" parent="1">
          <mxGeometry x="510" y="200" width="50" height="50" as="geometry" />
        </mxCell>
        <mxCell id="hX907-kXAruIxhgI71Em-15" value="Cloud Configs" style="shape=process;whiteSpace=wrap;html=1;backgroundOutline=1;rounded=1;sketch=1;hachureGap=4;jiggle=2;curveFitting=1;strokeColor=default;align=center;verticalAlign=middle;fontFamily=Architects Daughter;fontSource=https%3A%2F%2Ffonts.googleapis.com%2Fcss%3Ffamily%3DArchitects%2BDaughter;fontSize=20;fontColor=default;fillColor=default;" vertex="1" parent="1">
          <mxGeometry x="120" y="260" width="200" height="40" as="geometry" />
        </mxCell>
        <mxCell id="hX907-kXAruIxhgI71Em-16" value="Workload Config" style="shape=process;whiteSpace=wrap;html=1;backgroundOutline=1;rounded=1;sketch=1;hachureGap=4;jiggle=2;curveFitting=1;strokeColor=default;align=center;verticalAlign=middle;fontFamily=Architects Daughter;fontSource=https%3A%2F%2Ffonts.googleapis.com%2Fcss%3Ffamily%3DArchitects%2BDaughter;fontSize=18;fontColor=default;fillColor=default;" vertex="1" parent="1">
          <mxGeometry x="120" y="310" width="200" height="40" as="geometry" />
        </mxCell>
        <mxCell id="hX907-kXAruIxhgI71Em-21" style="edgeStyle=orthogonalEdgeStyle;rounded=0;hachureGap=4;orthogonalLoop=1;jettySize=auto;html=1;exitX=0.5;exitY=1;exitDx=0;exitDy=0;fontFamily=Architects Daughter;fontSource=https%3A%2F%2Ffonts.googleapis.com%2Fcss%3Ffamily%3DArchitects%2BDaughter;fontSize=20;fontColor=default;strokeWidth=2;flowAnimation=1;strokeColor=#FF00FF;" edge="1" parent="1" source="hX907-kXAruIxhgI71Em-18" target="hX907-kXAruIxhgI71Em-3">
          <mxGeometry relative="1" as="geometry" />
        </mxCell>
        <mxCell id="hX907-kXAruIxhgI71Em-18" value="Shadow Assets" style="shape=process;whiteSpace=wrap;html=1;backgroundOutline=1;rounded=1;sketch=1;hachureGap=4;jiggle=2;curveFitting=1;strokeColor=default;align=center;verticalAlign=middle;fontFamily=Architects Daughter;fontSource=https%3A%2F%2Ffonts.googleapis.com%2Fcss%3Ffamily%3DArchitects%2BDaughter;fontSize=20;fontColor=default;fillColor=default;" vertex="1" parent="1">
          <mxGeometry x="120" y="360" width="200" height="40" as="geometry" />
        </mxCell>
        <mxCell id="hX907-kXAruIxhgI71Em-22" value="Cloud &amp;amp; Data" style="shape=process;whiteSpace=wrap;html=1;backgroundOutline=1;rounded=1;sketch=1;hachureGap=4;jiggle=2;curveFitting=1;strokeColor=default;align=center;verticalAlign=middle;fontFamily=Architects Daughter;fontSource=https%3A%2F%2Ffonts.googleapis.com%2Fcss%3Ffamily%3DArchitects%2BDaughter;fontSize=20;fontColor=default;fillColor=default;" vertex="1" parent="1">
          <mxGeometry x="120" y="600" width="200" height="40" as="geometry" />
        </mxCell>
        <mxCell id="hX907-kXAruIxhgI71Em-23" value="Container Env" style="shape=process;whiteSpace=wrap;html=1;backgroundOutline=1;rounded=1;sketch=1;hachureGap=4;jiggle=2;curveFitting=1;strokeColor=default;align=center;verticalAlign=middle;fontFamily=Architects Daughter;fontSource=https%3A%2F%2Ffonts.googleapis.com%2Fcss%3Ffamily%3DArchitects%2BDaughter;fontSize=20;fontColor=default;fillColor=default;" vertex="1" parent="1">
          <mxGeometry x="120" y="710" width="200" height="40" as="geometry" />
        </mxCell>
        <mxCell id="hX907-kXAruIxhgI71Em-24" value="ISO27001" style="shape=process;whiteSpace=wrap;html=1;backgroundOutline=1;rounded=1;sketch=1;hachureGap=4;jiggle=2;curveFitting=1;strokeColor=default;align=center;verticalAlign=middle;fontFamily=Architects Daughter;fontSource=https%3A%2F%2Ffonts.googleapis.com%2Fcss%3Ffamily%3DArchitects%2BDaughter;fontSize=20;fontColor=default;fillColor=default;" vertex="1" parent="1">
          <mxGeometry x="160" y="650" width="160" height="20" as="geometry" />
        </mxCell>
        <mxCell id="hX907-kXAruIxhgI71Em-25" value="GDPR" style="shape=process;whiteSpace=wrap;html=1;backgroundOutline=1;rounded=1;sketch=1;hachureGap=4;jiggle=2;curveFitting=1;strokeColor=default;align=center;verticalAlign=middle;fontFamily=Architects Daughter;fontSource=https%3A%2F%2Ffonts.googleapis.com%2Fcss%3Ffamily%3DArchitects%2BDaughter;fontSize=20;fontColor=default;fillColor=default;" vertex="1" parent="1">
          <mxGeometry x="160" y="680" width="160" height="20" as="geometry" />
        </mxCell>
        <mxCell id="hX907-kXAruIxhgI71Em-27" value="CIS K8S" style="shape=process;whiteSpace=wrap;html=1;backgroundOutline=1;rounded=1;sketch=1;hachureGap=4;jiggle=2;curveFitting=1;strokeColor=default;align=center;verticalAlign=middle;fontFamily=Architects Daughter;fontSource=https%3A%2F%2Ffonts.googleapis.com%2Fcss%3Ffamily%3DArchitects%2BDaughter;fontSize=20;fontColor=default;fillColor=default;" vertex="1" parent="1">
          <mxGeometry x="160" y="760" width="160" height="20" as="geometry" />
        </mxCell>
        <mxCell id="hX907-kXAruIxhgI71Em-28" value="CIS Docker" style="shape=process;whiteSpace=wrap;html=1;backgroundOutline=1;rounded=1;sketch=1;hachureGap=4;jiggle=2;curveFitting=1;strokeColor=default;align=center;verticalAlign=middle;fontFamily=Architects Daughter;fontSource=https%3A%2F%2Ffonts.googleapis.com%2Fcss%3Ffamily%3DArchitects%2BDaughter;fontSize=20;fontColor=default;fillColor=default;" vertex="1" parent="1">
          <mxGeometry x="160" y="790" width="160" height="20" as="geometry" />
        </mxCell>
        <mxCell id="hX907-kXAruIxhgI71Em-29" value="Audit Logs" style="shape=process;whiteSpace=wrap;html=1;backgroundOutline=1;rounded=1;sketch=1;hachureGap=4;jiggle=2;curveFitting=1;strokeColor=default;align=center;verticalAlign=middle;fontFamily=Architects Daughter;fontSource=https%3A%2F%2Ffonts.googleapis.com%2Fcss%3Ffamily%3DArchitects%2BDaughter;fontSize=20;fontColor=default;fillColor=default;" vertex="1" parent="1">
          <mxGeometry x="530" y="600" width="200" height="40" as="geometry" />
        </mxCell>
        <mxCell id="hX907-kXAruIxhgI71Em-46" style="edgeStyle=orthogonalEdgeStyle;rounded=0;hachureGap=4;orthogonalLoop=1;jettySize=auto;html=1;exitX=0.5;exitY=1;exitDx=0;exitDy=0;entryX=0.5;entryY=0;entryDx=0;entryDy=0;fontFamily=Architects Daughter;fontSource=https%3A%2F%2Ffonts.googleapis.com%2Fcss%3Ffamily%3DArchitects%2BDaughter;fontSize=20;fontColor=default;dashed=1;dashPattern=1 4;flowAnimation=1;" edge="1" parent="1" source="hX907-kXAruIxhgI71Em-30" target="hX907-kXAruIxhgI71Em-45">
          <mxGeometry relative="1" as="geometry" />
        </mxCell>
        <mxCell id="hX907-kXAruIxhgI71Em-30" value="Network Flow Logs" style="shape=process;whiteSpace=wrap;html=1;backgroundOutline=1;rounded=1;sketch=1;hachureGap=4;jiggle=2;curveFitting=1;strokeColor=default;align=center;verticalAlign=middle;fontFamily=Architects Daughter;fontSource=https%3A%2F%2Ffonts.googleapis.com%2Fcss%3Ffamily%3DArchitects%2BDaughter;fontSize=20;fontColor=default;fillColor=default;" vertex="1" parent="1">
          <mxGeometry x="530" y="650" width="200" height="60" as="geometry" />
        </mxCell>
        <mxCell id="hX907-kXAruIxhgI71Em-31" value="Agentless Scan" style="shape=process;whiteSpace=wrap;html=1;backgroundOutline=1;rounded=1;sketch=1;hachureGap=4;jiggle=2;curveFitting=1;strokeColor=default;align=center;verticalAlign=middle;fontFamily=Architects Daughter;fontSource=https%3A%2F%2Ffonts.googleapis.com%2Fcss%3Ffamily%3DArchitects%2BDaughter;fontSize=20;fontColor=default;fillColor=default;" vertex="1" parent="1">
          <mxGeometry x="530" y="260" width="200" height="40" as="geometry" />
        </mxCell>
        <mxCell id="hX907-kXAruIxhgI71Em-32" value="VM" style="shape=process;whiteSpace=wrap;html=1;backgroundOutline=1;rounded=1;sketch=1;hachureGap=4;jiggle=2;curveFitting=1;strokeColor=default;align=center;verticalAlign=middle;fontFamily=Architects Daughter;fontSource=https%3A%2F%2Ffonts.googleapis.com%2Fcss%3Ffamily%3DArchitects%2BDaughter;fontSize=20;fontColor=default;fillColor=default;" vertex="1" parent="1">
          <mxGeometry x="590" y="310" width="140" height="40" as="geometry" />
        </mxCell>
        <mxCell id="hX907-kXAruIxhgI71Em-33" value="Container" style="shape=process;whiteSpace=wrap;html=1;backgroundOutline=1;rounded=1;sketch=1;hachureGap=4;jiggle=2;curveFitting=1;strokeColor=default;align=center;verticalAlign=middle;fontFamily=Architects Daughter;fontSource=https%3A%2F%2Ffonts.googleapis.com%2Fcss%3Ffamily%3DArchitects%2BDaughter;fontSize=20;fontColor=default;fillColor=default;" vertex="1" parent="1">
          <mxGeometry x="590" y="360" width="140" height="40" as="geometry" />
        </mxCell>
        <mxCell id="hX907-kXAruIxhgI71Em-34" value="Severless" style="shape=process;whiteSpace=wrap;html=1;backgroundOutline=1;rounded=1;sketch=1;hachureGap=4;jiggle=2;curveFitting=1;strokeColor=default;align=center;verticalAlign=middle;fontFamily=Architects Daughter;fontSource=https%3A%2F%2Ffonts.googleapis.com%2Fcss%3Ffamily%3DArchitects%2BDaughter;fontSize=20;fontColor=default;fillColor=default;" vertex="1" parent="1">
          <mxGeometry x="590" y="410" width="140" height="40" as="geometry" />
        </mxCell>
        <mxCell id="hX907-kXAruIxhgI71Em-41" style="edgeStyle=orthogonalEdgeStyle;rounded=0;hachureGap=4;orthogonalLoop=1;jettySize=auto;html=1;entryX=0.589;entryY=0.011;entryDx=0;entryDy=0;entryPerimeter=0;fontFamily=Architects Daughter;fontSource=https%3A%2F%2Ffonts.googleapis.com%2Fcss%3Ffamily%3DArchitects%2BDaughter;fontSize=20;fontColor=default;strokeWidth=2;flowAnimation=1;strokeColor=#FF00FF;" edge="1" parent="1" source="hX907-kXAruIxhgI71Em-5" target="hX907-kXAruIxhgI71Em-1">
          <mxGeometry relative="1" as="geometry" />
        </mxCell>
        <mxCell id="hX907-kXAruIxhgI71Em-45" value="Anomalies" style="rounded=1;whiteSpace=wrap;html=1;sketch=1;hachureGap=4;jiggle=2;curveFitting=1;strokeColor=default;align=center;verticalAlign=middle;fontFamily=Architects Daughter;fontSource=https%3A%2F%2Ffonts.googleapis.com%2Fcss%3Ffamily%3DArchitects%2BDaughter;fontSize=20;fontColor=default;fillColor=default;arcSize=50;" vertex="1" parent="1">
          <mxGeometry x="570" y="740" width="120" height="40" as="geometry" />
        </mxCell>
        <mxCell id="hX907-kXAruIxhgI71Em-47" value="" style="html=1;shadow=0;dashed=0;align=center;verticalAlign=middle;shape=mxgraph.arrows2.bendArrow;dy=10;dx=24;notch=1;arrowHead=50;rounded=1;sketch=1;hachureGap=4;jiggle=2;curveFitting=1;strokeColor=default;fontFamily=Architects Daughter;fontSource=https%3A%2F%2Ffonts.googleapis.com%2Fcss%3Ffamily%3DArchitects%2BDaughter;fontSize=20;fontColor=default;fillColor=default;flipV=1;" vertex="1" parent="1">
          <mxGeometry x="530" y="310" width="50" height="100" as="geometry" />
        </mxCell>
        <mxCell id="hX907-kXAruIxhgI71Em-50" value="" style="html=1;shadow=0;dashed=0;align=center;verticalAlign=middle;shape=mxgraph.arrows2.bendArrow;dy=10;dx=24;notch=1;arrowHead=50;rounded=1;sketch=1;hachureGap=4;jiggle=2;curveFitting=1;strokeColor=default;fontFamily=Architects Daughter;fontSource=https%3A%2F%2Ffonts.googleapis.com%2Fcss%3Ffamily%3DArchitects%2BDaughter;fontSize=20;fontColor=default;fillColor=default;flipV=1;" vertex="1" parent="1">
          <mxGeometry x="120" y="650" width="50" height="50" as="geometry" />
        </mxCell>
        <mxCell id="hX907-kXAruIxhgI71Em-51" value="" style="html=1;shadow=0;dashed=0;align=center;verticalAlign=middle;shape=mxgraph.arrows2.bendArrow;dy=10;dx=24;notch=1;arrowHead=50;rounded=1;sketch=1;hachureGap=4;jiggle=2;curveFitting=1;strokeColor=default;fontFamily=Architects Daughter;fontSource=https%3A%2F%2Ffonts.googleapis.com%2Fcss%3Ffamily%3DArchitects%2BDaughter;fontSize=20;fontColor=default;fillColor=default;flipV=1;" vertex="1" parent="1">
          <mxGeometry x="120" y="760" width="50" height="50" as="geometry" />
        </mxCell>
        <mxCell id="hX907-kXAruIxhgI71Em-52" value="Public&lt;div&gt;Clouds&lt;/div&gt;" style="ellipse;shape=cloud;whiteSpace=wrap;html=1;rounded=1;sketch=1;hachureGap=4;jiggle=2;curveFitting=1;strokeColor=default;align=center;verticalAlign=middle;fontFamily=Architects Daughter;fontSource=https%3A%2F%2Ffonts.googleapis.com%2Fcss%3Ffamily%3DArchitects%2BDaughter;fontSize=20;fontColor=default;fillColor=default;" vertex="1" parent="1">
          <mxGeometry x="400" y="450" width="120" height="80" as="geometry" />
        </mxCell>
        <mxCell id="hX907-kXAruIxhgI71Em-53" value="Workloads" style="rounded=1;whiteSpace=wrap;html=1;sketch=1;hachureGap=4;jiggle=2;curveFitting=1;strokeColor=default;align=center;verticalAlign=middle;fontFamily=Architects Daughter;fontSource=https%3A%2F%2Ffonts.googleapis.com%2Fcss%3Ffamily%3DArchitects%2BDaughter;fontSize=20;fontColor=default;fillColor=default;" vertex="1" parent="1">
          <mxGeometry x="490" y="460" width="110" height="30" as="geometry" />
        </mxCell>
        <mxCell id="hX907-kXAruIxhgI71Em-54" value="" style="rounded=0;whiteSpace=wrap;html=1;sketch=1;hachureGap=4;jiggle=2;curveFitting=1;strokeColor=default;align=center;verticalAlign=middle;fontFamily=Architects Daughter;fontSource=https%3A%2F%2Ffonts.googleapis.com%2Fcss%3Ffamily%3DArchitects%2BDaughter;fontSize=20;fontColor=default;fillColor=default;" vertex="1" parent="1">
          <mxGeometry x="310" y="-80" width="430" height="220" as="geometry" />
        </mxCell>
        <mxCell id="hX907-kXAruIxhgI71Em-56" value="Known Assets" style="rounded=0;whiteSpace=wrap;html=1;sketch=1;hachureGap=4;jiggle=2;curveFitting=1;strokeColor=default;align=center;verticalAlign=bottom;fontFamily=Architects Daughter;fontSource=https%3A%2F%2Ffonts.googleapis.com%2Fcss%3Ffamily%3DArchitects%2BDaughter;fontSize=20;fontColor=default;fillColor=default;" vertex="1" parent="1">
          <mxGeometry x="330" y="-70" width="390" height="150" as="geometry" />
        </mxCell>
        <mxCell id="hX907-kXAruIxhgI71Em-57" value="Unknown / Shadow Cloud Assets" style="rounded=0;whiteSpace=wrap;html=1;sketch=1;hachureGap=4;jiggle=2;curveFitting=1;strokeColor=default;align=center;verticalAlign=middle;fontFamily=Architects Daughter;fontSource=https%3A%2F%2Ffonts.googleapis.com%2Fcss%3Ffamily%3DArchitects%2BDaughter;fontSize=20;fontColor=default;fillColor=default;" vertex="1" parent="1">
          <mxGeometry x="330" y="90" width="390" height="40" as="geometry" />
        </mxCell>
        <mxCell id="hX907-kXAruIxhgI71Em-55" value="Public&lt;div&gt;Clouds&lt;/div&gt;" style="ellipse;shape=cloud;whiteSpace=wrap;html=1;rounded=1;sketch=1;hachureGap=4;jiggle=2;curveFitting=1;strokeColor=default;align=center;verticalAlign=middle;fontFamily=Architects Daughter;fontSource=https%3A%2F%2Ffonts.googleapis.com%2Fcss%3Ffamily%3DArchitects%2BDaughter;fontSize=20;fontColor=default;fillColor=default;" vertex="1" parent="1">
          <mxGeometry x="650" y="30" width="120" height="80" as="geometry" />
        </mxCell>
        <mxCell id="hX907-kXAruIxhgI71Em-59" value="Azure Firewall" style="image;sketch=0;aspect=fixed;html=1;points=[];align=center;fontSize=12;image=img/lib/mscae/Azure_Firewall.svg;rounded=1;hachureGap=4;jiggle=2;curveFitting=1;strokeColor=default;verticalAlign=middle;fontFamily=Architects Daughter;fontSource=https%3A%2F%2Ffonts.googleapis.com%2Fcss%3Ffamily%3DArchitects%2BDaughter;fontColor=default;fillColor=default;" vertex="1" parent="1">
          <mxGeometry x="360" y="-54" width="50" height="50" as="geometry" />
        </mxCell>
        <mxCell id="hX907-kXAruIxhgI71Em-60" value="Network Load&amp;nbsp;&lt;div&gt;Balancer&lt;/div&gt;" style="image;sketch=0;aspect=fixed;html=1;points=[];align=center;fontSize=12;image=img/lib/mscae/Load_Balancer_feature.svg;rounded=1;hachureGap=4;jiggle=2;curveFitting=1;strokeColor=default;verticalAlign=middle;fontFamily=Architects Daughter;fontSource=https%3A%2F%2Ffonts.googleapis.com%2Fcss%3Ffamily%3DArchitects%2BDaughter;fontColor=default;fillColor=default;" vertex="1" parent="1">
          <mxGeometry x="470" y="-50" width="50" height="50" as="geometry" />
        </mxCell>
        <mxCell id="hX907-kXAruIxhgI71Em-61" value="VM" style="image;sketch=0;aspect=fixed;html=1;points=[];align=center;fontSize=12;image=img/lib/mscae/Virtual_Machine.svg;rounded=1;hachureGap=4;jiggle=2;curveFitting=1;strokeColor=default;verticalAlign=middle;fontFamily=Architects Daughter;fontSource=https%3A%2F%2Ffonts.googleapis.com%2Fcss%3Ffamily%3DArchitects%2BDaughter;fontColor=default;fillColor=default;" vertex="1" parent="1">
          <mxGeometry x="570" y="-48" width="50" height="46" as="geometry" />
        </mxCell>
        <mxCell id="hX907-kXAruIxhgI71Em-62" value="EntraID" style="image;aspect=fixed;html=1;points=[];align=center;fontSize=12;image=img/lib/azure2/identity/Azure_Active_Directory.svg;rounded=1;sketch=1;hachureGap=4;jiggle=2;curveFitting=1;strokeColor=default;verticalAlign=middle;fontFamily=Architects Daughter;fontSource=https%3A%2F%2Ffonts.googleapis.com%2Fcss%3Ffamily%3DArchitects%2BDaughter;fontColor=default;fillColor=default;" vertex="1" parent="1">
          <mxGeometry x="660" y="-51" width="48.13" height="44" as="geometry" />
        </mxCell>
        <mxCell id="hX907-kXAruIxhgI71Em-63" value="Prisma&lt;div&gt;Cloud&lt;/div&gt;" style="ellipse;shape=cloud;whiteSpace=wrap;html=1;rounded=1;sketch=1;hachureGap=4;jiggle=2;curveFitting=1;strokeColor=#6c8ebf;align=center;verticalAlign=middle;fontFamily=Architects Daughter;fontSource=https%3A%2F%2Ffonts.googleapis.com%2Fcss%3Ffamily%3DArchitects%2BDaughter;fontSize=20;fillColor=#dae8fc;gradientColor=#7ea6e0;fontColor=#000000;" vertex="1" parent="1">
          <mxGeometry x="110" y="-20" width="130" height="90" as="geometry" />
        </mxCell>
        <mxCell id="hX907-kXAruIxhgI71Em-64" value="" style="shape=trapezoid;perimeter=trapezoidPerimeter;whiteSpace=wrap;html=1;fixedSize=1;rounded=1;hachureGap=4;strokeColor=default;align=center;verticalAlign=middle;fontFamily=Architects Daughter;fontSource=https%3A%2F%2Ffonts.googleapis.com%2Fcss%3Ffamily%3DArchitects%2BDaughter;fontSize=20;fontColor=default;fillColor=#3399FF;rotation=-90;arcSize=8;size=56.25;gradientColor=#000000;sketch=1;curveFitting=1;jiggle=2;" vertex="1" parent="1">
          <mxGeometry x="170" y="6.870000000000003" width="206.25" height="46.25" as="geometry" />
        </mxCell>
        <mxCell id="hX907-kXAruIxhgI71Em-68" value="POV" style="html=1;shadow=0;dashed=0;align=center;verticalAlign=middle;shape=mxgraph.arrows2.arrow;dy=0.31;dx=43.35;direction=south;notch=0;rounded=1;sketch=1;hachureGap=4;jiggle=2;curveFitting=1;strokeColor=default;fontFamily=Architects Daughter;fontSource=https%3A%2F%2Ffonts.googleapis.com%2Fcss%3Ffamily%3DArchitects%2BDaughter;fontSize=20;fontColor=default;fillColor=default;" vertex="1" parent="1">
          <mxGeometry x="370" y="160" width="110" height="140" as="geometry" />
        </mxCell>
        <mxCell id="hX907-kXAruIxhgI71Em-69" value="Value&lt;div&gt;of&lt;/div&gt;&lt;div&gt;POV&lt;/div&gt;" style="html=1;shadow=0;dashed=0;align=center;verticalAlign=middle;shape=mxgraph.arrows2.arrow;dy=0.31;dx=43.35;direction=south;notch=0;rounded=1;sketch=1;hachureGap=4;jiggle=2;curveFitting=1;strokeColor=default;fontFamily=Architects Daughter;fontSource=https%3A%2F%2Ffonts.googleapis.com%2Fcss%3Ffamily%3DArchitects%2BDaughter;fontSize=20;fontColor=default;fillColor=default;" vertex="1" parent="1">
          <mxGeometry x="370" y="560" width="110" height="280" as="geometry" />
        </mxCell>
        <mxCell id="hX907-kXAruIxhgI71Em-71" value="MTTD/MTTR&lt;div&gt;of Incident&lt;/div&gt;" style="rounded=1;whiteSpace=wrap;html=1;sketch=1;hachureGap=4;jiggle=2;curveFitting=1;strokeColor=#666666;align=center;verticalAlign=middle;fontFamily=Architects Daughter;fontSource=https%3A%2F%2Ffonts.googleapis.com%2Fcss%3Ffamily%3DArchitects%2BDaughter;fontSize=20;fillColor=#f5f5f5;gradientColor=#b3b3b3;fontColor=#000000;" vertex="1" parent="1">
          <mxGeometry x="150" y="850" width="130" height="50" as="geometry" />
        </mxCell>
        <mxCell id="hX907-kXAruIxhgI71Em-72" value="Compliance&lt;div&gt;Coverage&lt;/div&gt;" style="rounded=1;whiteSpace=wrap;html=1;sketch=1;hachureGap=4;jiggle=2;curveFitting=1;strokeColor=#666666;align=center;verticalAlign=middle;fontFamily=Architects Daughter;fontSource=https%3A%2F%2Ffonts.googleapis.com%2Fcss%3Ffamily%3DArchitects%2BDaughter;fontSize=20;fillColor=#f5f5f5;gradientColor=#b3b3b3;fontColor=#000000;" vertex="1" parent="1">
          <mxGeometry x="300" y="850" width="150" height="50" as="geometry" />
        </mxCell>
        <mxCell id="hX907-kXAruIxhgI71Em-73" value="Operation&lt;div&gt;Automation&lt;/div&gt;" style="rounded=1;whiteSpace=wrap;html=1;sketch=1;hachureGap=4;jiggle=2;curveFitting=1;strokeColor=#666666;align=center;verticalAlign=middle;fontFamily=Architects Daughter;fontSource=https%3A%2F%2Ffonts.googleapis.com%2Fcss%3Ffamily%3DArchitects%2BDaughter;fontSize=20;fillColor=#f5f5f5;gradientColor=#b3b3b3;fontColor=#000000;" vertex="1" parent="1">
          <mxGeometry x="470" y="850" width="120" height="50" as="geometry" />
        </mxCell>
        <mxCell id="hX907-kXAruIxhgI71Em-74" value="Vul Fixing&lt;div&gt;Strategy&lt;/div&gt;" style="rounded=1;whiteSpace=wrap;html=1;sketch=1;hachureGap=4;jiggle=2;curveFitting=1;strokeColor=#666666;align=center;verticalAlign=middle;fontFamily=Architects Daughter;fontSource=https%3A%2F%2Ffonts.googleapis.com%2Fcss%3Ffamily%3DArchitects%2BDaughter;fontSize=20;fillColor=#f5f5f5;gradientColor=#b3b3b3;fontColor=#000000;" vertex="1" parent="1">
          <mxGeometry x="610" y="850" width="120" height="50" as="geometry" />
        </mxCell>
      </root>
    </mxGraphModel>
  </diagram>
</mxfile>
